# xmcd CD database file
#
# Track frame offsets:
#	187
#	19462
#	41137
#	63037
#	90062
#	114537
#	140352
#	151140
#	169212
#	183787
#	202162
#	211112
#
# Disc length: 3089 seconds
#
# Revision: 0
# Processed by: cddbd v1.5.1PL0 Copyright (c) Steve Scherf et al.
# Submitted via: CDex 1.40Beta9
#
DISCID=990c0f0c
DTITLE=メトロファルス - 風狂伝
DYEAR=1994
DGENRE=Vocal
TTITLE0=DO THE TARASCON
TTITLE1=風狂伝
TTITLE2=大航海時代
TTITLE3=マラスキーノ伯爵の大快楽園
TTITLE4=アニトラの踊り
TTITLE5=君の心の SAD MONKEY
TTITLE6=SUNSET MOTEL
TTITLE7=ジャージー・ロージー
TTITLE8=ままよ、さばさーれ
TTITLE9=今は昔の僕ぢゃない
TTITLE10=屋根裏アンファン
TTITLE11=蒼空のチリアクター
EXTD=YEAR: 1994 ID3G: 28
EXTT0=
EXTT1=
EXTT2=
EXTT3=
EXTT4=
EXTT5=
EXTT6=
EXTT7=
EXTT8=
EXTT9=
EXTT10=
EXTT11=
PLAYORDER=
